{"title":"Macon County Line (1974) Richard Compton.avi","uid":8180952,"size":1174622208,"categoryP":"video","categoryS":"movies","magnet":"?xt=urn:btih:5973cd935f3eaf33fe4de305247a7614614ff13e&amp;dn=Macon+County+Line+%281974%29+Richard+Compton.avi&amp;tr=udp%3A%2F%2Ftracker.openbittorrent.com%3A80&amp;tr=udp%3A%2F%2Fopen.demonii.com%3A1337&amp;tr=udp%3A%2F%2Ftracker.coppersurfer.tk%3A6969&amp;tr=udp%3A%2F%2Fexodus.desync.com%3A6969","seeders":4,"leechers":1,"uploader":"yousef86","files":-1,"time":1361624857,"description":"::Release Info::\n================\nRelease Title: Macon County Line (1974) Richard Compton\n\n::IMDB and TMDB Info::\n======================\nTMDB Link: http://www.themoviedb.org/movie/42450\nIMDB Link: http://www.imdb.com/title/tt0071788\nStoryline: A vengeful Southern sheriff is out for blood after his wife is brutally killed by a pair of drifters. Low-budget film set in Georgia in 1953 and based on fact.\nGenre: Drama | Indie\nRelease date: 01/01/1974\n\n::Actors::\n==========\nMax Baer Jr. ... Deptuty Reed Morgan\nGeoffrey Lewis ... Hamp\nLeif Garrett ... Luke Morgan\nAlan Vint ... Chris Dixon\nJesse Vint ... Wayne Dixon\nCheryl Waters ... Jenny Scott\n\nGeneral\n=======\nComplete name : Macon County Line (1974) Richard Compton.avi\nFormat : AVI\nFormat/Info : Audio Video Interleave\nFile size : 1.09 GiB\nDuration : 1h 28mn\nOverall bit rate mode : Variable\nOverall bit rate : 1 773 Kbps\nWriting application : VirtualDubMod 1.5.4.1 (build 2178/release)\nWriting library : VirtualDubMod build 2178/release\n\nVideo\n=====\nID : 0\nFormat : MPEG-4 Visual\nFormat profile : Advanced Simple@L5\nFormat settings, BVOP : 1\nFormat settings, QPel : No\nFormat settings, GMC : No warppoints\nFormat settings, Matrix : Custom\nCodec ID : XVID\nCodec ID/Hint : XviD\nDuration : 1h 28mn\nBit rate : 1 660 Kbps\nWidth : 720 pixels\nHeight : 416 pixels\nDisplay aspect ratio : 16:9\nFrame rate : 23.976 fps\nColor space : YUV\nChroma subsampling : 4:2:0\nBit depth : 8 bits\nScan type : Progressive\nCompression mode : Lossy\nBits/(Pixel*Frame) : 0.231\nStream size : 1.02 GiB (94%)\nWriting library : XviD 1.1.2 (UTC 2006-11-01)\n\nAudio\n=====\nID : 1\nFormat : MPEG Audio\nFormat version : Version 1\nFormat profile : Layer 3\nMode : Joint stereo\nMode extension : MS Stereo\nCodec ID : 55\nCodec ID/Hint : MP3\nDuration : 1h 28mn\nBit rate mode : Variable\nBit rate : 100 Kbps\nChannel(s) : 2 channels\nSampling rate : 48.0 KHz\nCompression mode : Lossy\nStream size : 63.4 MiB (6%)\nAlignment : Aligned on interleaves\nInterleave, duration : 24 ms (0.58 video frame)\nInterleave, preload duration : 160 ms\nWriting library : LAME3.97\nLanguage : English","torrent":{"xt":"urn:btih:5973cd935f3eaf33fe4de305247a7614614ff13e","amp;dn":"Macon+County+Line+%281974%29+Richard+Compton.avi","amp;tr":["udp%3A%2F%2Ftracker.openbittorrent.com%3A80","udp%3A%2F%2Fopen.demonii.com%3A1337","udp%3A%2F%2Ftracker.coppersurfer.tk%3A6969","udp%3A%2F%2Fexodus.desync.com%3A6969"],"infoHash":"5973cd935f3eaf33fe4de305247a7614614ff13e","infoHashBuffer":{"type":"Buffer","data":[89,115,205,147,95,62,175,51,254,77,227,5,36,122,118,20,97,79,241,62]},"announce":[],"urlList":[]}}